<svg xmlns="http://www.w3.org/2000/svg" width="360" height="360" viewBox="0 0 360 360" fill="none">
  <g stroke="#5EB07F" stroke-width="1.6" stroke-linecap="round" stroke-linejoin="round" opacity="0.8">
    <path d="M-30 340 C45 280, 75 215, 132 145"/>
    <path d="M112 168 C140 145, 167 126, 188 93"/>
    <path d="M82 212 C112 198, 130 176, 144 149"/>
    <path d="M56 251 C84 238, 106 220, 122 197"/>

    <path d="M120 160 C132 146, 149 140, 166 143 C154 160, 137 168, 120 160Z"/>
    <path d="M96 204 C108 192, 124 186, 141 189 C129 206, 113 212, 96 204Z"/>
    <path d="M70 241 C82 230, 96 224, 112 226 C101 242, 86 248, 70 241Z"/>

    <path d="M74 112 C142 38, 214 22, 284 -18"/>
    <path d="M150 70 C170 50, 198 42, 228 44"/>
    <path d="M199 44 C219 27, 246 18, 276 20"/>
    <path d="M244 22 C266 6, 291 -3, 320 -1"/>

    <path d="M142 78 C156 63, 176 56, 196 58 C182 76, 162 84, 142 78Z"/>
    <path d="M195 50 C209 35, 228 28, 248 30 C234 48, 214 56, 195 50Z"/>
    <path d="M240 28 C254 13, 272 6, 292 8 C278 25, 260 33, 240 28Z"/>

    <path d="M258 132 C272 170, 283 212, 286 252"/>
    <path d="M266 160 C287 158, 306 166, 319 181"/>
    <path d="M272 193 C292 190, 312 197, 327 212"/>
    <path d="M276 225 C296 222, 316 230, 332 245"/>

    <path d="M254 164 C267 154, 284 152, 300 157 C286 171, 270 175, 254 164Z"/>
    <path d="M261 197 C273 188, 290 186, 307 191 C293 205, 276 208, 261 197Z"/>
    <path d="M266 229 C279 220, 296 218, 312 223 C298 237, 281 240, 266 229Z"/>

    <path d="M6 34 C36 18, 62 4, 82 -20"/>
    <path d="M14 66 C44 54, 68 41, 88 22"/>
    <path d="M28 94 C56 85, 80 74, 99 57"/>

    <path d="M20 66 C33 56, 48 54, 63 59 C50 72, 34 76, 20 66Z"/>
    <path d="M34 93 C47 84, 62 82, 77 87 C64 100, 48 104, 34 93Z"/>
  </g>
</svg>
